<?xml version="1.0" standalone="no"?>
<!DOCTYPE svg PUBLIC "-//W3C//DTD SVG 20010904//EN"
 "http://www.w3.org/TR/2001/REC-SVG-20010904/DTD/svg10.dtd">
<svg version="1.0" xmlns="http://www.w3.org/2000/svg"
 width="512.000000pt" height="512.000000pt" viewBox="0 0 512.000000 512.000000"
 preserveAspectRatio="xMidYMid meet">

<g transform="translate(0.000000,512.000000) scale(0.100000,-0.100000)"
fill="#000000" stroke="none">
<path d="M1380 3727 c-70 -16 -136 -54 -184 -108 -56 -61 -79 -120 -84 -214
l-4 -80 -61 30 c-54 26 -72 30 -147 30 -72 0 -94 -4 -145 -28 -77 -36 -147
-110 -176 -185 -17 -45 -23 -85 -27 -193 l-4 -137 -97 -4 c-119 -5 -184 -31
-241 -95 -93 -106 -93 -260 0 -366 56 -63 121 -89 241 -95 l97 -5 4 -136 c4
-108 10 -148 27 -193 29 -75 99 -149 176 -185 51 -24 73 -28 145 -28 75 0 93
4 147 30 l61 30 4 -81 c3 -62 11 -94 32 -137 34 -71 110 -139 184 -168 69 -26
177 -29 241 -5 103 38 190 134 218 239 9 37 13 133 13 344 l0 293 759 0 760 0
3 -317 3 -318 29 -59 c129 -263 490 -268 621 -10 23 45 30 74 33 138 l4 81 61
-30 c54 -26 72 -30 147 -30 76 0 92 3 152 33 102 50 166 135 188 251 5 30 10
100 10 156 l0 102 98 5 c121 6 186 32 242 95 93 106 93 260 0 366 -57 64 -122
90 -241 95 l-97 4 -4 137 c-4 108 -10 148 -27 193 -29 75 -99 149 -176 185
-51 24 -73 28 -145 28 -75 0 -93 -4 -147 -30 l-61 -30 -4 81 c-9 170 -117 293
-284 323 -151 28 -305 -54 -372 -197 l-27 -57 -3 -527 -3 -528 -759 0 -760 0
0 140 0 140 655 0 655 0 0 70 0 70 -654 0 -655 0 -3 318 c-3 301 -4 319 -25
364 -73 159 -231 241 -393 205z m131 -138 c52 -16 108 -64 130 -113 18 -39 19
-86 19 -916 0 -983 4 -922 -75 -987 -97 -80 -234 -60 -305 45 l-25 36 0 906 0
906 24 36 c55 79 144 113 232 87z m2259 -20 c22 -13 52 -40 67 -62 l28 -40 0
-907 0 -907 -28 -40 c-70 -101 -206 -119 -302 -40 -79 65 -75 4 -75 987 0 834
1 877 19 916 21 45 72 92 123 111 45 17 120 9 168 -18z m-2780 -341 c24 -13
58 -40 74 -61 l31 -39 0 -568 0 -568 -31 -39 c-84 -105 -233 -110 -321 -10
-18 20 -37 53 -42 74 -15 52 -15 1034 0 1086 32 118 179 181 289 125z m3315 3
c51 -23 101 -79 114 -128 15 -52 15 -1034 0 -1086 -5 -21 -24 -54 -42 -74 -88
-100 -237 -95 -321 10 l-31 39 0 568 0 568 31 39 c61 77 164 103 249 64z
m-3755 -671 l0 -140 -75 0 c-88 0 -131 15 -168 59 -21 25 -27 43 -27 78 0 96
63 143 193 143 l77 0 0 -140z m4203 126 c18 -7 46 -28 61 -47 25 -29 28 -39
24 -86 -8 -93 -66 -133 -193 -133 l-75 0 0 140 0 140 75 0 c42 0 90 -6 108
-14z"/>
</g>
</svg>
